<svg width="427" height="95" viewBox="0 0 427 95" fill="none" xmlns="http://www.w3.org/2000/svg">
<path d="M104.185 58.6029C104.259 61.1502 106.123 62.4238 109.778 62.4238C111.181 62.4238 112.325 62.1284 113.211 61.5378C114.134 60.9102 114.596 60.1903 114.596 59.3781C114.596 58.566 114.319 57.9384 113.765 57.4954C113.211 57.0524 112.344 56.6462 111.162 56.2771L105.293 54.1728C100.936 52.6592 98.7583 50.1858 98.7583 46.7525C98.7583 44.4636 99.7735 42.6362 101.804 41.2703C103.871 39.8674 106.622 39.166 110.055 39.166C113.525 39.166 116.183 39.9228 118.029 41.4364C119.912 42.9501 120.89 44.8512 120.964 47.1401H114.817C114.743 46.2541 114.319 45.5527 113.544 45.0358C112.768 44.5189 111.661 44.2606 110.221 44.2606C108.781 44.2606 107.655 44.556 106.843 45.1466C106.068 45.7003 105.68 46.3463 105.68 47.0847C105.68 48.3769 106.769 49.3366 108.947 49.9643L115.316 52.3454C117.42 53.0468 119.026 53.9513 120.133 55.0588C121.278 56.1295 121.85 57.5322 121.85 59.2674C121.85 61.4824 120.798 63.4021 118.694 65.0265C116.515 66.7246 113.636 67.5737 110.055 67.5737C106.474 67.5737 103.594 66.7985 101.416 65.248C99.2381 63.6606 98.1306 61.4456 98.0938 58.6029H104.185Z" fill="#232345"/>
<path d="M145.381 66.134C142.944 67.0939 141.025 67.5738 139.622 67.5738C138.218 67.5738 136.983 67.4077 135.912 67.0754C134.878 66.7432 133.955 66.2448 133.143 65.5803C131.445 64.0666 130.596 61.9808 130.596 59.3228V44.2606H126.83V39.8859H130.596V32.7979H137.13V39.8859H144.44V44.2606H137.13V59.1013C137.13 61.3163 138.182 62.4238 140.286 62.4238C141.358 62.4238 142.742 62.1285 144.44 61.5378L145.381 66.134Z" fill="#232345"/>
<path d="M153.084 39.8306H159.618V66.7986H153.084V39.8306ZM152.309 31.192C152.309 30.0106 152.658 29.0877 153.361 28.4232C154.062 27.7219 155.058 27.3711 156.351 27.3711C157.606 27.3711 158.583 27.7219 159.286 28.4232C160.023 29.0877 160.393 30.0106 160.393 31.192C160.393 32.3734 160.023 33.3148 159.286 34.0162C158.583 34.6807 157.606 35.0129 156.351 35.0129C155.058 35.0129 154.062 34.6807 153.361 34.0162C152.658 33.3148 152.309 32.3734 152.309 31.192Z" fill="#232345"/>
<path d="M195.761 66.799H187.787L181.142 58.1604L174.94 66.799H166.91L177.376 53.3981L166.91 39.8311H174.94L181.529 48.4697L187.787 39.8311H195.761L185.35 53.3981L195.761 66.799Z" fill="#232345"/>
<path d="M199.709 47.251H215.27V52.9547H199.709V47.251Z" fill="#232345"/>
<path d="M225.826 39.8867L231.252 59.1021L236.402 41.3819H242.328L247.477 59.1575L252.96 39.8867H259.494L250.634 66.7993H244.21L239.226 50.685L234.353 66.7993H227.874L218.959 39.8867H225.826Z" fill="#232345"/>
<path d="M284.654 43.0977C285.576 44.2791 286.26 45.645 286.703 47.1955C287.182 48.746 287.422 50.1673 287.422 51.4594C287.422 52.7516 287.348 53.9145 287.201 54.9481H269.813C269.887 57.1263 270.422 58.8983 271.419 60.2642C272.416 61.63 273.93 62.3131 275.96 62.3131C278.654 62.3131 280.26 61.1317 280.777 58.769H287.367C286.924 61.4639 285.687 63.5867 283.657 65.1372C281.553 66.7616 278.986 67.5737 275.96 67.5737C272.416 67.5737 269.444 66.2816 267.044 63.6974C264.571 61.0026 263.334 57.5507 263.334 53.3422C263.334 49.0229 264.571 45.5527 267.044 42.9316C269.406 40.4211 272.379 39.166 275.96 39.166C279.689 39.166 282.586 40.4765 284.654 43.0977ZM276.015 44.3713C274.169 44.3713 272.729 44.9805 271.696 46.1987C270.663 47.3801 270.053 48.9121 269.868 50.7949H281.331C281.331 47.8785 280.409 45.9219 278.562 44.9251C277.861 44.556 277.012 44.3713 276.015 44.3713Z" fill="#232345"/>
<path d="M310.895 66.134C308.458 67.0939 306.537 67.5738 305.136 67.5738C303.732 67.5738 302.495 67.4077 301.425 67.0754C300.391 66.7432 299.468 66.2448 298.657 65.5803C296.957 64.0666 296.109 61.9808 296.109 59.3228V44.2606H292.344V39.8859H296.109V32.7979H302.644V39.8859H309.953V44.2606H302.644V59.1013C302.644 61.3163 303.696 62.4238 305.8 62.4238C306.87 62.4238 308.254 62.1285 309.953 61.5378L310.895 66.134Z" fill="#232345"/>
<path d="M318.043 28.8115H324.577V66.7992H318.043V28.8115Z" fill="#232345"/>
<path d="M344.197 51.0718C346.337 51.0718 348.812 51.4226 351.617 52.1239V49.4659C351.617 47.5831 351.23 46.1987 350.454 45.3127C349.715 44.3898 348.48 43.9283 346.744 43.9283C345.046 43.9283 343.735 44.2791 342.812 44.9805C341.89 45.645 341.428 46.6049 341.428 47.86H334.285C334.285 44.7958 335.356 42.5808 337.496 41.2149C339.675 39.849 342.702 39.166 346.578 39.166C352.116 39.166 355.696 41.1042 357.321 44.9805C357.875 46.3095 358.151 47.8785 358.151 49.6874V66.7985H352.448L351.949 63.1991C350.214 66.1155 347.556 67.5737 343.975 67.5737C340.506 67.5737 337.81 66.7246 335.89 65.0265C334.118 63.4021 333.232 61.3532 333.232 58.8798C333.232 56.3693 334.21 54.4497 336.167 53.1207C338.124 51.7548 340.8 51.0718 344.197 51.0718ZM351.617 56.2771C349.439 55.6865 347.409 55.3911 345.526 55.3911C341.982 55.3911 340.21 56.5725 340.21 58.9351C340.21 59.9319 340.616 60.7994 341.428 61.5378C342.24 62.2392 343.532 62.5899 345.304 62.5899C347.113 62.5899 348.59 61.9993 349.734 60.8179C350.916 59.5996 351.543 58.086 351.617 56.2771Z" fill="#232345"/>
<path d="M374.572 44.5375C376.344 40.9566 379.187 39.166 383.1 39.166C386.422 39.166 388.914 40.255 390.576 42.4332C392.275 44.6113 393.123 47.4909 393.123 51.0718V66.7985H386.589V51.0718C386.589 49.0783 386.109 47.5831 385.149 46.5864C384.19 45.5527 382.842 45.0358 381.106 45.0358C379.372 45.0358 377.877 45.8111 376.621 47.3616C375.403 48.9121 374.757 51.2379 374.683 54.339V66.7985H368.148V39.8859H373.852L374.572 44.5375Z" fill="#232345"/>
<path d="M420.679 62.6461C419.017 65.9318 416.47 67.5745 413.037 67.5745C409.604 67.5745 406.724 66.264 404.398 63.6428C401.998 60.9109 400.799 57.4408 400.799 53.2322C400.799 49.0237 401.943 45.6089 404.232 42.9877C406.484 40.4404 409.29 39.1668 412.649 39.1668C416.008 39.1668 418.538 40.5143 420.236 43.2092V28.8115H426.825V66.7993H421.454L420.679 62.6461ZM413.868 45.0366C412.021 45.0366 410.471 45.7933 409.216 47.307C407.998 48.7836 407.389 50.7772 407.389 53.2876C407.389 55.798 408.017 57.8284 409.271 59.3789C410.526 60.8926 412.114 61.6493 414.034 61.6493C415.621 61.6493 417.043 61.0217 418.298 59.7665C419.59 58.4744 420.236 56.8501 420.236 54.8935V51.4048C420.161 49.4852 419.516 47.9161 418.298 46.6979C417.19 45.5904 415.714 45.0366 413.868 45.0366Z" fill="#232345"/>
<path d="M0 65.7692V73.0768L25.3146 58.4615L18.986 54.8076L0 65.7692Z" fill="url(#paint0_linear)"/>
<path d="M0 73.0772V65.7695L37.9719 87.6926V95.0003L0 73.0772Z" fill="#171735"/>
<path d="M75.9435 73.0768V65.7692L56.9576 54.8076L50.6289 58.4615L75.9435 73.0768Z" fill="url(#paint1_linear)"/>
<path d="M75.9446 65.7695V73.0772L37.9727 95.0003V87.6926L75.9446 65.7695Z" fill="#232345"/>
<path d="M0 43.8463V51.154L25.3146 36.5386L18.986 32.8848L0 43.8463Z" fill="url(#paint2_linear)"/>
<path d="M0 43.8457V51.1534L37.9719 73.0765V65.7688L0 43.8457Z" fill="#13C674"/>
<path d="M75.943 51.1535V43.8458L63.2857 36.5381L56.957 40.1919L75.943 51.1535Z" fill="url(#paint3_linear)"/>
<path d="M75.9446 43.8457L37.9727 65.7688V73.0765L75.9446 51.1534V43.8457Z" fill="#1DD882"/>
<path d="M0 29.2308L37.9719 7.30769V0L0 21.9231V29.2308Z" fill="url(#paint4_linear)"/>
<path d="M37.9719 43.8459L0 21.9229V29.2305L37.9719 51.1536V43.8459Z" fill="#171735"/>
<path d="M37.9727 7.30769V0L75.9446 21.9231V29.2308L37.9727 7.30769Z" fill="url(#paint5_linear)"/>
<path d="M75.9446 21.9229L37.9727 43.8459V51.1536L75.9446 29.2305V21.9229Z" fill="#232345"/>
<defs>
<linearGradient id="paint0_linear" x1="25.3146" y1="56.9831" x2="0.899459" y2="72.7172" gradientUnits="userSpaceOnUse">
<stop stop-color="#232345"/>
<stop offset="0.865664" stop-color="#0D0D22"/>
</linearGradient>
<linearGradient id="paint1_linear" x1="50.6289" y1="57.4282" x2="73.5929" y2="71.9296" gradientUnits="userSpaceOnUse">
<stop stop-color="#121231"/>
<stop offset="0.790016" stop-color="#090921"/>
</linearGradient>
<linearGradient id="paint2_linear" x1="25.3146" y1="36.0243" x2="2.56817" y2="52.0606" gradientUnits="userSpaceOnUse">
<stop stop-color="#1DD882"/>
<stop offset="0.812154" stop-color="#09B466"/>
</linearGradient>
<linearGradient id="paint3_linear" x1="59.093" y1="38.921" x2="75.0695" y2="45.0259" gradientUnits="userSpaceOnUse">
<stop stop-color="#0EC16F"/>
<stop offset="0.855259" stop-color="#08A85E"/>
</linearGradient>
<linearGradient id="paint4_linear" x1="37.9719" y1="3.48076" x2="1.75846e-07" y2="26.4221" gradientUnits="userSpaceOnUse">
<stop stop-color="#232345"/>
<stop offset="0.865664" stop-color="#0D0D22"/>
</linearGradient>
<linearGradient id="paint5_linear" x1="37.9727" y1="4.19273" x2="73.6504" y2="25.3146" gradientUnits="userSpaceOnUse">
<stop stop-color="#121231"/>
<stop offset="0.790016" stop-color="#090921"/>
</linearGradient>
</defs>
</svg>
